<svg width="1471" height="1662" viewBox="0 0 1471 1662" fill="none" xmlns="http://www.w3.org/2000/svg">
<path d="M2.32683 1.43462C153.674 -1.48018 305.556 0.955785 456.945 0.914145L1468.44 1.2403C1469.89 85.1796 1468.63 169.341 1468.62 253.294L1468.78 725.728L1468.9 1026.69L1469.37 1156.6C1469.49 1208.19 1474.57 1267.63 1457.87 1317.03C1430.18 1398.97 1373.62 1451.12 1297.68 1489.1L1295.3 1490.09C1257.17 1505.7 750.605 1662.54 733.137 1661.31C712.365 1659.84 682.662 1647.4 661.87 1641.07L496.906 1590.35L289.629 1527.27C252.889 1516.01 214.476 1506.46 179.089 1491.43C107.121 1460.85 48.4779 1408.8 18.8511 1335.25C5.99818 1303.34 2.56983 1267.24 1.27899 1233.13C-0.629508 1182.93 1.29975 1132.34 1.38997 1082.08L1.47331 792.213L0.126949 27.0918C0.161649 18.9929 -0.851687 8.91594 2.32683 1.43462Z" fill="#794610"/>
<path d="M60.1093 43.9839L1409.47 43.9978L1409.34 832.867L1409.55 1090.41C1409.74 1141.2 1412.21 1192.96 1408.94 1243.63C1407.13 1271.8 1403.37 1299.76 1391.76 1325.72C1365.48 1384.49 1311.3 1419.08 1253.24 1441.51C1082.84 1499.2 905.471 1543.98 734.948 1601.69C690.282 1585.27 642.285 1574 596.675 1560.12L344.108 1481.53C290.948 1465.23 233.915 1451.45 183.6 1427.75C158.727 1416.04 136.63 1400.93 117.128 1381.52C87.8138 1352.35 70.6998 1317.89 64.0651 1277.16C56.0356 1227.86 59.8526 1176.15 59.9497 1126.31L60.0607 892.905L60.1093 43.9839Z" fill="#FEFEFE"/>
<path d="M593.198 549.764C598.91 552.908 598.993 553.373 605.774 552.186C610.659 568.828 615.629 585.387 619.237 602.369C608.959 585.706 600.832 567.76 593.198 549.764Z" fill="#AE5F0E"/>
<path d="M1285.19 1098.95C1301.05 1098.09 1319.34 1104.88 1334.78 1108.55C1315.56 1109.9 1296.02 1110.47 1276.77 1109C1282.17 1105.63 1282.48 1104.44 1285.19 1098.95Z" fill="#AE5F0E"/>
<path d="M1112.99 670.499C1117.12 673.102 1120.75 672.456 1125.06 673.893C1126.57 687.169 1127.02 698.162 1123.24 711.251C1119.4 710.39 1115.65 708.752 1111.94 707.399C1113.01 695.178 1112.59 682.769 1112.99 670.499Z" fill="#AE5F0E"/>
<path d="M339.847 342.876C342.984 360.142 338.709 383.961 342.637 398.791C338.73 401.262 336.148 401.547 331.665 402.067C327.244 390.956 326.827 381.518 327.709 369.747C332.664 363.987 339.07 360.927 339.43 352.488C339.569 349.254 339.611 346.124 339.847 342.876Z" fill="#AE5F0E"/>
<path d="M335.905 313.811C338.216 323.687 339.486 332.743 339.847 342.876C339.611 346.124 339.569 349.254 339.43 352.488C339.07 360.927 332.664 363.987 327.709 369.747C314.391 355.638 299.796 348.386 282.765 339.85C300.684 331.23 317.007 320.46 335.905 313.811Z" fill="#794610"/>
<path d="M165.528 420.43C182.489 410.423 199.36 400.471 216.94 391.574C218.057 411.686 214.809 448.336 223.56 465.172C219.84 468.233 217.981 469.968 213.067 470.724C209.035 461.647 208.813 453 208.181 443.256C194.086 435.358 180.019 427.592 165.528 420.43Z" fill="#794610"/>
<path d="M1117.97 615.923C1135.87 626.12 1153.61 636.59 1171.19 647.334C1154.08 654.253 1139.92 663.025 1125.06 673.893C1120.75 672.456 1117.12 673.102 1112.99 670.499C1112.35 651.414 1113.49 634.501 1117.97 615.923Z" fill="#794610"/>
<path d="M1264.43 683.491C1281.98 691.881 1297.99 702.104 1315 711.355C1300.19 719.024 1286.42 728.081 1272.49 737.207C1272.49 744.043 1272.47 750.663 1271.57 757.464C1267.43 756.77 1263.32 756.659 1260.22 753.571C1261.13 730.121 1262.96 706.893 1264.43 683.491Z" fill="#794610"/>
<path d="M436.674 279.347C457.369 266.737 478.189 254.877 500.313 244.897C506.386 279.409 504.949 315.726 504.214 350.635C499.654 351.155 495.081 351.828 490.493 351.974C492.825 338.587 488.404 320.897 488.883 306.489C471.034 298.904 453.822 288.424 436.674 279.347Z" fill="#794610"/>
<path d="M949.325 581.993C970.455 593.653 991.353 605.712 1012.02 618.172C994.303 627.02 977.223 636.91 960.068 646.785C959.547 659.527 958.048 673.046 958.652 685.76C953.343 686.142 947.083 686.197 941.906 684.955C942.968 683.213 943.287 682.936 943.807 680.645C945.501 673.123 943.696 661.061 943.606 653.149C943.335 629.31 943.571 605.277 949.325 581.993Z" fill="#794610"/>
<path d="M182.344 550.854C204.128 546.058 221.735 525.772 239.675 513.558C315.626 461.834 415.458 422.644 508.031 426.204C477.099 435.601 445.723 443.589 414.986 453.61C394.555 460.194 374.38 467.483 354.462 475.478C334.54 483.473 314.923 492.153 295.611 501.517C276.295 510.882 257.33 520.91 238.717 531.602C220.104 542.29 201.887 553.616 184.065 565.58C182.76 560.368 182.087 556.232 182.344 550.854Z" fill="#794610"/>
<path d="M556.694 376.396C557.041 376.722 557.451 376.986 557.735 377.368C562.371 383.544 550.74 455.54 550.42 469.448C549.921 491.191 552.024 511.983 557.235 533.046C564.009 560.445 575.689 587.198 592.227 610.149C599.278 619.934 636.851 658.75 636.775 666.474C632.042 667.55 626.858 664.579 622.478 662.879C614.641 658.711 607.201 653.92 600.159 648.506C562.954 620.42 536.034 571.521 529.954 525.509C523.847 479.226 527.171 415.003 556.694 376.396Z" fill="#794610"/>
<path d="M976.585 741.662C980.457 741.447 984.365 741.204 988.237 741.315C997.245 741.579 1006.07 744.369 1012.16 751.281C1023.18 763.787 1020.33 786.439 1019.63 801.86C1038.79 801.894 1058.3 804.157 1077.37 806.003C1076.25 793.899 1067.96 767.389 1075.85 757.423C1077.6 755.223 1079.67 755.556 1082.26 755.091C1088.85 756.875 1093.93 759.713 1098.86 764.522C1113.09 778.416 1110.01 794.295 1109.76 812.374C1126.3 815.268 1143.06 816.565 1159.77 818.113C1158.68 808.487 1155.81 797.14 1157.22 787.528C1158.24 780.623 1160.08 777.063 1165.59 772.795C1171.08 773.149 1173.76 774.669 1177.48 778.763C1190.73 793.296 1190.25 807.044 1189.79 825.31C1203.48 829.002 1217.3 832.143 1231.25 834.734C1231.06 820.084 1228.39 806.579 1225 792.38C1233.92 792.858 1248.38 792.907 1254.48 800.742C1258.92 806.44 1259.2 812.034 1258.89 818.988C1258.86 825.928 1257.59 840.036 1261.32 845.852C1263.83 849.759 1268.34 849.017 1268.92 854.499C1253.97 860.336 1187 845.38 1167.37 841.945C1120.34 834.001 1073.06 828.144 1025.51 824.373C976.55 820.667 927.29 820.16 879.335 808.709C914.208 804.08 948.11 802.033 983.282 801.235C983.212 780.936 980.048 761.587 976.585 741.662Z" fill="#794610"/>
<path d="M455.814 463.861C461.949 463.451 467.612 462.792 473.608 464.347C474.115 465.304 474.871 466.172 475.121 467.22C476.072 471.252 471.221 493.689 470.541 499.65C468.938 513.648 469.208 527.591 469.493 541.651C489.119 539.479 505.463 540.187 524.853 544.184C472.512 565.199 414.771 572.472 361.382 590.856C323.163 604.007 286.305 620.392 249.051 635.973C231.222 643.426 213.109 652.379 194.447 657.494L193.031 655.682C194.371 652.865 195.307 651.949 197.778 649.929C200.499 647.708 202.976 645.467 205.426 642.94C212.505 635.633 212.22 632.766 211.97 622.939C210.006 604.673 209.618 585.755 220.576 569.953C223.789 565.317 227.072 561.847 232.756 560.681C235.24 561.597 237.086 562.332 238.738 564.56C248.017 577.08 241.549 602.973 239.446 617.554C263.951 605.312 287.485 591.675 312.344 580.029C311.316 564.838 307.708 546.884 312.975 532.303C316.438 522.719 323.975 513.697 333.636 509.97C338.584 508.062 341.783 508.561 346.398 510.838C352.748 520.845 342.873 552.075 342.415 565.046L342.338 567.579C373.374 562.013 403.91 553.061 434.682 546.107C433.565 526.355 429.248 501.545 436.264 482.807C440.081 472.64 446.279 468.309 455.814 463.861Z" fill="#794610"/>
<path d="M732.928 698.44C802.384 685.503 871.173 677.363 941.906 684.955C947.083 686.197 953.343 686.142 958.652 685.76C1001.67 685.219 1070.54 694.796 1111.94 707.399C1115.65 708.752 1119.4 710.39 1123.24 711.251C1169.1 719.239 1216.81 736.825 1260.22 753.571C1263.32 756.659 1267.43 756.77 1271.57 757.464C1286.51 764.043 1303.66 771.671 1309.82 788.104C1322.83 822.846 1325.1 1047.91 1317.16 1089.49C1313.83 1069.95 1310.25 1050.39 1308.35 1030.66C1306.79 1014.39 1306.69 997.332 1303.72 981.293C1303.17 978.323 1302.74 975.429 1300.15 973.486C1299.86 973.271 1299.51 973.167 1299.19 973.007C1300.38 971.938 1301.07 970.508 1301.9 969.155C1303.59 951.625 1294.44 806.19 1285.49 794.954C1271.14 776.917 1229.21 768.409 1207.39 761.642C1098.24 727.775 988.987 706.788 874.692 701.361C827.868 699.141 779.163 705.387 732.928 698.44Z" fill="url(#paint0_linear_1_35)"/>
<path d="M464.399 601.023C476.197 599.697 486.482 601.877 497.919 604.417C477.883 632.572 481.839 665.884 483.442 698.474C539.483 693.637 601.693 681.749 657.865 690.542C668.65 692.228 681.739 696.205 688.082 705.852C699.096 722.591 681.267 803.914 676.513 826.247C665.985 788.451 678.408 758.679 672.439 724.312C671.621 719.621 671.732 718.129 667.512 715.471C653.188 706.442 622.631 711.279 606.162 712.445C518.135 718.67 434.731 734.396 348.917 754.106C297.784 767.132 249.731 789.201 197.903 800.576C210.693 774.315 206.03 738.595 205.787 710.002C212.935 704.693 224.518 695.907 233.401 694.893C238.148 694.352 239.862 695.414 243.658 698.079C249.564 710.987 240.667 753.058 240.667 770.859C266.702 760.74 292.888 751.036 319.228 741.745C318 719.058 313.253 688.807 321.504 667.39C326.196 655.19 332.414 651.164 344.004 645.994C352.956 646.598 361.68 648.388 370.473 650.068C358.849 676.024 358.342 698.447 359.244 726.387C385.47 719.281 412.425 714.353 438.783 707.566C437.624 676.912 437.09 647.077 441.199 616.576C448.77 610.1 455.502 605.485 464.399 601.023Z" fill="#794610"/>
<path d="M504.214 350.635C526.554 346.401 547.686 344.104 570.477 343.743C590.672 360.92 603.99 379.908 606.051 407.21C607.335 424.199 603.421 441.549 600.867 458.274C595.732 491.919 598.32 519.082 605.774 552.186C598.993 553.373 598.91 552.908 593.198 549.764C588.021 534.212 583.212 517.347 582.421 500.9C580.686 464.999 596.814 420.638 581.907 386.799C578.18 378.346 572.177 370.379 563.266 367.055C551.982 362.842 537.873 366.111 526.207 367.693C469.09 375.452 414.958 392.858 362.221 415.774C315.126 436.233 236.434 475.77 203.365 513.551C193.406 524.919 187.805 536.981 182.344 550.854C182.087 556.232 182.76 560.368 184.065 565.58C184.259 601.224 178.998 637.194 176.944 672.789L167.922 850.655C165.91 886.965 162.967 923.157 161.572 959.509C172.426 957.246 183.128 954.921 194.19 953.964L193.968 963.964L159.254 968.85C157.179 1012.32 151.405 1054.95 145.881 1098.05C145.548 1096.17 145.256 1094.29 144.951 1092.41C135.214 1032.3 143.993 939.445 146.831 876.673L157.276 600.239C158.241 569.855 156.548 528.528 177.166 504.536C187.66 492.329 201.29 481.766 213.067 470.724C217.98 469.968 219.84 468.233 223.56 465.172C258.302 441.32 296.68 425.073 331.664 402.067C336.148 401.547 338.729 401.262 342.637 398.791C390.946 377.208 439.2 364.341 490.493 351.974C495.081 351.828 499.654 351.155 504.214 350.635Z" fill="url(#paint1_linear_1_35)"/>
<path d="M766.775 925.697C766.116 891.302 757.288 814.261 781.036 788.375C789.448 779.2 801.051 774.891 813.321 774.509C826.022 774.113 838.604 777.25 848.028 786.168C866.648 803.796 865.628 836.213 865.517 859.92C865.286 877.617 864.909 895.311 864.386 913.004C904.282 913.281 944.173 913.894 984.059 914.843C983.372 900.373 976.238 847.171 982.963 837.913C988.133 835.685 991.339 835.213 996.718 837.288C1005.46 840.654 1014.45 848.392 1017.81 857.275C1023.83 873.237 1019.81 901.254 1019.28 918.32C1038.43 918.771 1057.59 920.117 1076.74 920.395C1077.06 903.614 1070.11 866.166 1076.24 852.792C1080 850.308 1080.8 849.794 1085.54 851.036C1095.38 853.632 1105.13 866.964 1108.54 875.979C1113.94 890.275 1109.48 909.554 1109.53 924.767L1159.45 931.297C1158.56 914.079 1152.69 888.145 1159.13 872.065C1161.03 870.295 1161.88 868.609 1164.67 868.518C1171.2 868.31 1178.77 874.098 1182.9 878.81C1195.33 892.996 1191.32 920.277 1190.97 937.981L1231.47 946.413C1230.56 931.665 1224.59 904.523 1232.06 891.448C1235.83 888.977 1237.15 887.832 1241.96 888.651C1246.64 889.449 1252.77 893.28 1257.13 895.432C1259.46 915.78 1258.83 936.183 1259.6 956.601C1273.75 960.617 1287.85 964.801 1301.9 969.155C1301.07 970.508 1300.38 971.938 1299.19 973.007C1155.75 955.928 1012.6 940.923 868.175 934.941C858.751 935.878 851.45 941.02 843.441 945.719C842.504 947.947 841.525 950.098 840.866 952.423C822.822 950.251 818.957 946.753 799.219 948.12C791.863 937.023 785.943 938.883 774.867 935.121C769.377 933.255 769.107 930.499 766.775 925.697Z" fill="#794610"/>
<path d="M766.775 925.697C800.448 928.306 834.752 930.208 868.175 934.941C858.751 935.878 851.45 941.02 843.441 945.719C842.504 947.947 841.525 950.098 840.866 952.423C822.822 950.251 818.957 946.753 799.219 948.12C791.863 937.023 785.943 938.883 774.867 935.121C769.377 933.255 769.107 930.499 766.775 925.697Z" fill="#FEFBE5"/>
<path d="M542.536 902.33C542.203 872.932 536.825 816.801 548.477 791.179C553.051 781.123 560.685 773.232 571.192 769.471C582.99 765.244 597.668 765.654 608.945 771.088C609.667 772.219 610.798 773.17 611.111 774.467C611.603 776.542 608.515 785.696 607.96 788.181C602.692 811.555 599.403 832.43 599.972 856.491C603.414 868.914 609.521 876.95 611.333 890.352C630.73 889.63 647.011 898.77 665.964 899.936L666.679 902.469C667.172 902.594 667.665 902.726 668.164 902.85C687.707 907.604 711.442 903.725 723.566 923.046C734.643 940.701 735.566 972.146 731.263 992.3C730.409 996.325 729.597 998.386 726.335 1001.02C713.087 982.161 734.712 935.295 692.114 927.675C658.421 921.651 619.841 924.441 585.738 925.627C453.954 930.208 324.822 950.5 193.968 963.964L194.19 953.963C207.702 939.188 200.054 902.497 201.359 883.953C201.914 876.083 204.052 868.872 206.425 861.412C210.86 857.442 215.329 853.188 221.027 851.141C230.222 847.844 244.581 844.27 253.673 848.434C260.904 858.143 250.189 872.301 247.732 883.113C244.373 897.868 246.698 921.942 245.983 938.036C266.54 933.262 287.054 929.618 308.124 928.181C307.506 895.161 303.44 862.758 315.945 831.23C325.356 824.463 335.308 819.466 346.731 817.093C353.845 815.615 358.599 815.393 364.789 819.557C370.681 830.209 359.223 846.845 357.752 858.955C355.33 878.942 357.474 900.31 358.495 920.416C379.805 917.399 401.164 914.759 422.572 912.497C420.76 883.189 413.688 826.871 432.78 803.518C440.373 794.232 451.747 790.284 463.434 789.735C471.485 789.361 481.499 790.367 487.717 795.877C489.105 806.398 478.196 820.875 476.148 831.799C471.762 855.214 475.385 882.78 476.468 906.452C498.516 905.397 520.571 904.558 542.536 902.33Z" fill="#794610"/>
<path d="M599.972 856.491C603.414 868.914 609.521 876.95 611.333 890.352C630.73 889.63 647.011 898.77 665.964 899.936L666.679 902.469C653.431 905.037 617.315 900.782 600.735 900.935C599.981 886.13 599.727 871.315 599.972 856.491Z" fill="#FEFBE5"/>
<path d="M626.892 1075.79C626.753 1054.29 622.763 976.803 629.807 961.035C634.45 950.646 650.356 943.29 660.607 940.313C668.282 938.085 674.959 937.037 682.218 940.944C688.235 950.861 680.025 964.297 677.561 974.853C670.906 1003.35 675.528 1045.44 676.208 1075.5C707.877 1073.91 739.561 1073.55 771.258 1074.43C770.73 1044.9 765.546 1010.05 772.986 981.453C777.22 965.165 785.18 956.767 799.219 948.12C818.957 946.753 822.822 950.251 840.866 952.423C857.827 968.482 860.833 993.23 861.367 1015.51C861.853 1035.78 860.43 1056.08 860.312 1076.34C874.039 1076 887.94 1075.16 901.661 1075.41C901.73 1056.86 901.425 1038.49 900.196 1019.97C899.169 1004.56 896.428 988.337 897.719 972.993C901.605 969.565 905.582 969.585 910.662 970.043C918.671 970.758 925.083 972.625 930.406 978.933C948.568 1000.46 940.247 1050.47 939.636 1077.1C958.666 1077.46 977.765 1078.19 996.794 1077.88C997.863 1063.41 993.498 989.163 994.08 987.956C994.67 986.727 996.135 986.179 997.162 985.291C1005.02 984.215 1014.96 985.658 1021.33 990.773C1029.93 997.679 1031.81 1010.63 1032.56 1020.96C1033.97 1040.28 1032.42 1060.08 1032.01 1079.44C1050.75 1080.06 1070.48 1080.54 1088.99 1083.66C1088.01 1062.63 1082.02 1014.31 1087.86 996.339C1092.75 994.278 1099.15 994.264 1104.16 996.159C1111.42 998.9 1116.53 1005.78 1119.02 1012.88C1126.41 1033.91 1121.66 1062.71 1121.55 1084.85C1139.52 1085.51 1157.64 1086.68 1175.61 1086.73C1175.76 1070.8 1176.27 1054.67 1175.04 1038.78C1174.56 1032.56 1170.27 1013.04 1171.4 1008.73C1171.9 1006.82 1173.27 1005.26 1174.2 1003.53C1178.46 1001.56 1180.22 1001 1184.76 1002.68C1192.57 1005.56 1200.84 1014.45 1204.04 1022.02C1212.02 1040.81 1204.29 1070.86 1206.34 1091.6C1223.52 1092.9 1240.8 1093.89 1257.92 1095.81C1258.22 1081.14 1253.03 1028.99 1258.32 1020.26C1262.35 1018.6 1264.42 1018.59 1268.49 1020.47C1274.82 1023.4 1282.47 1031.42 1284.6 1038.14C1289.77 1054.47 1285.95 1081.63 1285.19 1098.95C1282.48 1104.44 1282.17 1105.63 1276.77 1109C1186.91 1110.34 1096.28 1105.41 1006.42 1103.06C903.204 1100.24 799.978 1099.92 696.743 1102.08C586.351 1104.53 476.03 1108.84 365.782 1115.02L203.913 1122.76C184.571 1123.52 165.077 1125.66 145.714 1125.52C143.25 1125.51 140.87 1125.58 138.399 1125.74L139.35 1124.4C152.39 1118.41 167.638 1115.76 181.767 1113.51C181.226 1095.3 175.903 1026.14 183.544 1013.52C188.555 1005.24 201.928 996.839 211.519 995.902C216.176 995.451 216.96 995.95 220.437 998.588C223.234 1008.69 219.001 1024.05 218.348 1034.76C216.877 1058.92 217.737 1083.52 217.835 1107.73C239.959 1106.05 262.063 1102.64 284.077 1099.85C283.834 1072.67 276.144 1023.65 290.864 999.74C295.223 992.668 301.927 988.157 310.102 986.741C317.257 985.499 324.017 985.617 329.971 989.822C330.901 1001.63 324.176 1014.22 322.879 1026.21C320.429 1048.88 322.774 1072.88 323.85 1095.63C346.69 1093.75 369.675 1092.82 392.556 1091.47C392.945 1058.16 393.125 1024.86 393.097 991.551C402.099 982.029 413.64 973.624 426.451 970.092C431.469 968.711 434.404 969.197 438.901 971.64C445.245 983.833 437.173 998.747 435.189 1011.62C431.51 1035.45 434.071 1062.21 434.8 1086.26C457.757 1082.81 483.394 1083.92 506.691 1083.02C508.183 1053.45 500.161 1005.31 510.481 978.614C513.937 969.676 518.926 966.032 527.539 962.201C536.283 958.308 547.991 954.671 557.263 958.426C563.343 968.808 552.87 989.406 551.531 1001.36C548.72 1026.44 551.746 1054.36 552.752 1079.65C577.389 1078.81 602.415 1078.74 626.892 1075.79Z" fill="#794610"/>
<path d="M735.635 1158.51C837.847 1153.93 940.49 1158.7 1042.68 1161.21C1143.38 1163.67 1245.38 1163.77 1345.7 1173.67C1345.22 1214.9 1342.52 1255.03 1321.81 1291.69C1303.5 1324.09 1274.87 1349.24 1242.33 1366.85C1183.65 1398.6 1091.28 1419.03 1025.62 1438.97C929.67 1468.09 834.072 1499.94 737.37 1526.29C711.185 1523.12 684.355 1513.18 659.101 1505.62L534.798 1467.91L352.589 1411.25C315.189 1399.46 275.728 1388.81 239.89 1372.92C228.522 1367.84 217.666 1361.85 207.321 1354.94C196.971 1348.02 187.275 1340.28 178.235 1331.73C135.686 1290.65 125.172 1241.13 123.985 1183.91C162.71 1183.25 201.692 1178.82 240.501 1177.48L735.635 1158.51Z" fill="#DF3332"/>
<path d="M124.402 116.444C185.744 118.637 247.698 116.431 309.082 116.132L539.275 116.826L1345.54 116.666L1346.31 408.368C1346.11 491.78 1343.87 575.38 1346.17 658.771C1328.14 650.942 1311.58 639.762 1293.24 632.6C1269.56 623.342 1250.4 627.902 1228.05 637.555C1222.25 615.222 1205.7 600.343 1187.07 587.948C1160.97 570.584 1132.79 557.245 1101.09 563.596C1086.85 570.265 1076.15 578.628 1065.03 589.648C1037.81 563.207 995.482 530.221 956.181 526.64C939.893 525.148 923.896 530.048 911.64 540.999C888.773 561.437 885.157 595.894 883.901 624.674C824.127 628.401 766.983 635.105 707.958 645.265C694.863 636.32 685.133 628.242 675.868 615.271C677.193 577.753 659.621 544.393 655.86 507.742C654.305 492.634 656.47 477.977 658.58 463.042C664.875 418.515 668.699 381.337 644.256 341.196C625.185 309.89 600.284 293.158 564.98 284.469C564.557 267.389 561.788 249.88 556.132 233.723C550.046 216.332 539.767 199.995 522.473 192.076C505.949 184.512 487.815 187.232 471.339 193.416C433.19 207.74 396.04 232.655 378.877 270.401C369.731 265.113 359.078 259.672 348.848 256.924C323.815 250.192 293.779 265.981 272.688 278.368C251.952 290.548 232.138 306.531 225.725 330.668C208.528 334.985 191.067 339.003 175.161 347.074C158.748 355.402 143.827 366.18 127.032 373.884L124.637 374.966C121.424 289.146 124.36 202.375 124.402 116.444Z" fill="#459C2E"/>
<path d="M1071.54 172.214C1076.47 174.449 1081.77 178.613 1084.02 183.644C1085.61 187.191 1085.36 191.153 1083.94 194.7C1081.55 200.675 1076.85 203.271 1071.3 205.859C1060.61 201.744 1057.24 196.206 1051.13 187.121C1057.59 181.778 1064.72 177.093 1071.54 172.214Z" fill="#794610"/>
<path d="M1312.74 249.845C1319.94 265.807 1324.96 302.582 1319.07 319.308C1315.4 322.174 1315.01 321.292 1310.57 321.105C1307.12 317.725 1306.93 314.727 1306.75 309.834C1306.1 292.45 1312.38 274.274 1309.47 256.986C1310.94 255.036 1311.78 252.114 1312.74 249.845Z" fill="#794610"/>
<path d="M1015.12 223.473C1022.46 229.081 1028.45 235.514 1034.7 242.253C1032.57 249.234 1031.71 256.14 1028.16 262.622C1022.93 265.883 1020.7 265.134 1014.66 264.96C1009.38 265.495 1004.74 266.64 1000 263.663C995.732 257.937 996.468 248.61 996.072 241.649L1015.12 223.473Z" fill="#5D6120"/>
<path d="M1182.93 279.229C1183.8 279.326 1184.68 279.389 1185.56 279.527C1195.04 281.04 1208.47 295.906 1213.61 303.734C1228.59 326.539 1233.3 355.104 1228.02 381.719C1222.49 409.639 1206.78 433.936 1182.9 449.599C1156.36 467.012 1130.44 467.588 1100.32 461.314C1099.86 461.14 1099.4 460.967 1098.94 460.786C1098.17 460.481 1097.42 460.155 1096.65 459.856C1086.76 455.949 1078.25 450.397 1069.29 444.741C1098.17 451.251 1125.44 453.173 1152.85 439.668C1176.91 427.814 1196.7 406.55 1204.93 380.831C1211.81 359.317 1213 328.198 1201.71 308.106C1196.6 299.022 1188.62 291.409 1184.18 281.998C1183.75 281.082 1183.34 280.152 1182.93 279.229Z" fill="url(#paint2_linear_1_35)"/>
<path d="M1133.73 231.579C1147.59 230.739 1165.87 234.473 1179.27 238.116C1212.86 247.256 1239.52 266.293 1256.86 296.739C1273.7 326.31 1278.59 360.594 1269.06 393.42C1258.16 430.965 1232.53 455.699 1199.16 474.194C1194.57 476.332 1189.84 478.018 1185.09 479.746L1184.42 477.012L1184.41 479.864L1181.27 480.086L1181.55 480.315C1184.54 473.931 1209.35 461.397 1216.6 454.27C1225.61 445.414 1233.37 431.881 1238.55 420.395C1254.15 385.779 1254.69 348.483 1241.23 313.055C1217.86 251.538 1185.37 255.112 1135.3 232.308L1133.73 231.579Z" fill="#5D6120"/>
<path d="M1104.83 167.814C1136.41 165.586 1171 164.025 1202.43 167.793C1248.56 173.332 1285.44 214.847 1312.74 249.845C1311.78 252.114 1310.94 255.036 1309.47 256.986C1290.43 251.302 1274.35 258.666 1257.82 267.382C1222.27 227.908 1189.18 219.26 1137.72 214.999C1134.5 192.285 1122.28 181.167 1104.83 167.814Z" fill="#DF3332"/>
<defs>
<linearGradient id="paint0_linear_1_35" x1="1095.54" y1="699.391" x2="1010.61" y2="948.218" gradientUnits="userSpaceOnUse">
<stop stop-color="#743901"/>
<stop offset="1" stop-color="#B25707"/>
</linearGradient>
<linearGradient id="paint1_linear_1_35" x1="170.53" y1="514.731" x2="426.862" y2="764.803" gradientUnits="userSpaceOnUse">
<stop stop-color="#7B3A01"/>
<stop offset="1" stop-color="#A75806"/>
</linearGradient>
<linearGradient id="paint2_linear_1_35" x1="1131.02" y1="361.02" x2="1204.16" y2="423.469" gradientUnits="userSpaceOnUse">
<stop stop-color="#69641E"/>
<stop offset="1" stop-color="#A14A26"/>
</linearGradient>
</defs>
</svg>
